<svg xmlns="http://www.w3.org/2000/svg" viewBox="0 0 64 64" role="img" aria-label="Headphones icon">
  <rect width="64" height="64" rx="16" fill="#080f1d"/>
  <path d="M14 35c0-12.15 7.88-21 18-21s18 8.85 18 21" fill="none" stroke="#19c792" stroke-width="5.4" stroke-linecap="round"/>
  <path d="M20.2 35v-3.3C20.2 24.65 25 20 32 20s11.8 4.65 11.8 11.7V35" fill="none" stroke="#6ee7f9" stroke-width="3.4" stroke-linecap="round" opacity=".72"/>
  <path d="M12 36.6c0-2.38 1.92-4.3 4.3-4.3h5.2v15.4h-5.2c-2.38 0-4.3-1.92-4.3-4.3v-6.8Z" fill="#19c792"/>
  <path d="M52 36.6c0-2.38-1.92-4.3-4.3-4.3h-5.2v15.4h5.2c2.38 0 4.3-1.92 4.3-4.3v-6.8Z" fill="#19c792"/>
  <path d="M25 42.2c4.42 3.05 9.58 3.05 14 0" fill="none" stroke="#eafff8" stroke-width="3.2" stroke-linecap="round" opacity=".86"/>
</svg>
